<?xml version="1.0" standalone="no"?>
<!DOCTYPE svg PUBLIC "-//W3C//DTD SVG 20010904//EN"
 "http://www.w3.org/TR/2001/REC-SVG-20010904/DTD/svg10.dtd">
<svg version="1.0" xmlns="http://www.w3.org/2000/svg"
 width="500.000000pt" height="500.000000pt" viewBox="0 0 500.000000 500.000000"
 preserveAspectRatio="xMidYMid meet">

<g transform="translate(0.000000,500.000000) scale(0.100000,-0.100000)"
fill="#000000" stroke="none">
<path d="M2928 3613 c-9 -10 -25 -37 -37 -60 -22 -44 -63 -73 -103 -73 -13 0
-43 9 -67 20 -59 27 -78 25 -113 -12 -27 -30 -31 -31 -62 -20 -47 17 -55 16
-97 -23 -57 -52 -91 -47 -177 22 -53 44 -77 40 -123 -21 -61 -80 -109 -87
-166 -23 -21 24 -46 46 -57 50 -42 16 -127 -117 -169 -263 l-25 -85 -38 -7
c-289 -52 -408 -85 -483 -132 -102 -65 -94 -130 26 -193 90 -48 308 -101 486
-119 67 -6 68 -7 89 -48 146 -289 484 -464 808 -417 256 38 482 197 595 421
10 19 18 36 19 37 1 1 48 9 104 18 258 39 449 102 499 165 19 23 15 74 -7 103
-42 53 -208 111 -419 148 -63 10 -116 20 -117 22 -1 1 -9 31 -18 67 -9 36 -37
108 -63 160 -39 78 -63 111 -139 188 -93 94 -118 107 -146 75z m-263 -173
c-10 -11 -23 -20 -28 -20 -6 0 -2 9 8 20 10 11 23 20 28 20 6 0 2 -9 -8 -20z
m-420 -30 c18 -19 17 -20 -3 -20 -12 0 -26 -8 -31 -19 -6 -10 -24 -21 -40 -23
l-29 -4 36 43 c20 24 39 43 43 43 3 0 14 -9 24 -20z m265 1 c0 -5 -7 -12 -16
-15 -14 -5 -15 -4 -4 9 14 17 20 19 20 6z m-557 -47 l29 -34 -26 -31 c-19 -23
-26 -42 -26 -74 0 -31 -6 -50 -20 -63 -26 -24 -52 -89 -45 -112 3 -11 -1 -33
-9 -49 -21 -39 -20 -64 3 -107 11 -20 17 -42 15 -49 -3 -7 -1 -16 5 -19 19
-12 -1 -36 -29 -36 -38 0 -46 14 -60 105 -13 86 -8 189 14 270 27 102 93 237
114 234 4 0 20 -16 35 -35z m-229 -436 c10 -46 12 -88 6 -88 -14 0 -76 24 -98
38 -27 17 -17 35 32 57 44 19 55 18 60 -7z m1627 -4 c17 -8 29 -21 26 -27 -4
-14 -74 -54 -81 -47 -8 9 6 90 16 90 5 0 23 -7 39 -16z m-1422 -250 c27 -6 32
-12 37 -46 4 -22 13 -42 20 -45 8 -3 14 -11 14 -18 0 -30 36 -79 86 -116 30
-22 54 -43 54 -48 0 -5 15 -23 33 -41 l32 -33 -52 28 c-103 55 -221 172 -278
276 l-26 49 24 0 c14 0 39 -3 56 -6z"/>
<path d="M1066 2047 c-16 -12 -18 -30 -17 -162 1 -81 4 -152 7 -157 8 -13 70
-9 82 5 6 7 12 35 14 62 3 49 4 50 38 53 47 5 62 19 58 56 -3 29 -6 31 -50 34
-58 4 -64 22 -9 22 22 0 50 4 63 9 23 9 24 9 20 -60 -3 -56 0 -77 18 -115 53
-109 204 -105 250 6 l13 31 21 -37 c30 -53 67 -77 120 -78 66 -1 129 52 146
125 6 28 8 20 9 -39 1 -68 3 -73 27 -82 14 -6 37 -10 51 -10 42 0 112 39 136
76 12 19 24 34 27 34 3 0 12 -15 21 -32 31 -63 153 -100 207 -63 17 12 26 13
42 5 44 -23 78 -7 95 44 5 17 10 16 44 -18 31 -30 45 -37 72 -35 19 1 46 -1
61 -5 40 -11 65 8 80 62 12 39 18 47 38 47 20 0 26 -7 35 -42 13 -54 25 -65
66 -61 23 2 37 10 43 25 l10 21 32 -25 c48 -36 135 -43 174 -15 23 18 29 19
34 7 7 -19 69 -20 84 -2 6 7 12 39 14 72 2 32 8 60 13 62 6 2 29 -29 51 -69
36 -65 45 -73 73 -76 18 -2 39 2 47 9 11 9 17 9 28 0 8 -7 48 -12 93 -12 106
-1 101 -2 118 25 13 19 14 29 5 45 -9 18 -20 21 -71 21 -52 0 -60 2 -57 18 2
11 14 18 38 20 47 5 62 19 58 56 -3 29 -6 31 -50 34 -59 4 -64 22 -5 22 55 0
91 19 95 50 6 38 -21 50 -118 50 -123 0 -122 1 -121 -146 l1 -119 -21 25 c-12
14 -32 47 -46 73 l-24 49 20 22 c27 28 27 72 2 86 -29 15 -35 13 -83 -26 -43
-37 -43 -37 -46 -13 -2 13 -9 30 -14 37 -16 18 -65 15 -87 -7 -16 -16 -21 -17
-33 -5 -8 8 -37 17 -65 21 -42 5 -58 2 -87 -16 -44 -28 -76 -92 -76 -157 l-1
-49 -34 98 c-39 113 -48 127 -85 127 -37 0 -49 -17 -105 -148 l-49 -113 -20
22 c-15 15 -17 23 -8 26 19 7 42 58 42 93 0 65 -56 120 -122 120 -49 0 -136
-28 -146 -47 -9 -14 -10 -14 -16 5 -9 27 -66 46 -118 39 -28 -4 -52 -16 -77
-41 -36 -35 -37 -35 -49 -15 -33 52 -176 78 -223 41 -18 -15 -22 -28 -21 -63
l1 -44 -23 50 c-26 57 -55 75 -119 75 -53 0 -106 -26 -132 -66 l-21 -31 -20
36 c-10 19 -30 41 -44 48 -41 21 -110 16 -157 -12 -32 -18 -43 -20 -43 -10 0
8 -9 19 -19 25 -29 15 -183 13 -205 -3z m201 -23 c11 -28 -26 -46 -84 -41
l-53 4 0 -34 0 -33 51 0 c47 0 50 -2 47 -22 -3 -20 -10 -23 -50 -26 l-47 -3
-3 -62 c-3 -59 -4 -62 -30 -65 l-27 -3 -3 133 c-2 73 1 141 5 151 11 25 184
26 194 1z m215 5 c11 -6 28 -29 39 -52 60 -134 -42 -286 -156 -231 -48 23 -75
76 -75 150 0 63 18 102 59 127 30 19 103 22 133 6z m276 5 c43 -12 79 -122 61
-188 -13 -48 -62 -103 -98 -111 -33 -7 -88 13 -114 42 -9 11 -23 46 -29 77
-10 46 -10 64 2 98 25 70 97 103 178 82z m266 -8 c45 -19 66 -52 66 -104 0
-106 -114 -214 -198 -188 -18 6 -20 18 -24 139 -4 121 -3 133 15 150 24 21 94
23 141 3z m265 3 c51 -18 37 -44 -23 -45 -65 -1 -86 -25 -86 -100 0 -72 21
-94 90 -94 43 0 50 -3 50 -20 0 -28 -36 -43 -87 -36 -92 12 -131 70 -118 174
6 47 13 63 45 94 41 41 71 47 129 27z m278 -21 c49 -47 41 -122 -15 -147 l-25
-12 37 -38 c25 -25 35 -43 30 -54 -11 -30 -48 -19 -94 28 -50 51 -76 59 -66
20 9 -34 -9 -65 -38 -65 -23 0 -24 3 -31 116 -9 137 -3 157 52 172 76 20 114
15 150 -20z m220 20 c19 -25 93 -272 84 -281 -5 -5 -19 -7 -32 -5 -20 2 -26
12 -37 58 l-13 55 -40 -3 c-38 -4 -40 -6 -54 -57 -16 -53 -32 -69 -60 -59 -24
9 -18 33 36 160 57 133 64 144 89 144 10 0 22 -6 27 -12z m307 -8 c28 -23 7
-41 -45 -39 -57 3 -74 -12 -84 -73 -5 -27 -1 -49 12 -75 17 -36 21 -38 73 -43
41 -4 56 -9 58 -22 7 -37 -90 -49 -149 -17 -35 18 -59 70 -59 127 0 103 55
167 137 159 24 -3 49 -10 57 -17z m126 -29 l5 -45 58 48 c58 47 87 54 87 19 0
-9 -11 -29 -25 -43 l-26 -27 51 -83 c28 -46 50 -90 48 -99 -2 -9 -15 -17 -29
-19 -22 -3 -30 7 -68 73 -24 41 -48 78 -53 81 -5 3 -18 -2 -28 -11 -14 -13
-20 -34 -22 -79 -3 -56 -5 -61 -27 -64 -13 -2 -28 2 -32 10 -14 22 -11 275 4
282 35 14 52 1 57 -43z m437 33 c11 -28 -26 -46 -84 -41 l-53 4 0 -34 0 -33
51 0 c47 0 50 -2 47 -22 -3 -20 -10 -23 -50 -26 l-48 -3 0 -40 0 -39 64 0 c68
0 88 -12 63 -37 -16 -17 -162 -22 -177 -6 -11 10 -16 266 -6 282 5 7 40 11 97
11 74 0 91 -3 96 -16z m-1308 -204 c0 -35 -2 -41 -10 -27 -8 13 -23 17 -64 17
-62 0 -75 13 -75 75 0 61 14 75 71 75 38 0 51 4 57 18 7 18 19 -71 21 -158z
m781 -5 c-4 -19 -8 -26 -13 -17 -5 7 -29 12 -56 12 -27 0 -53 6 -58 13 -18 22
-23 62 -12 100 10 36 11 37 59 37 29 0 54 6 62 14 11 11 14 1 18 -58 3 -39 3
-84 0 -101z"/>
<path d="M1360 1961 c-14 -28 -12 -64 6 -111 28 -69 76 -80 100 -24 16 37 12
99 -8 137 -13 25 -84 24 -98 -2z m89 -38 c14 -48 14 -56 -1 -88 -16 -36 -34
-31 -58 15 -33 65 -25 110 21 110 24 0 30 -5 38 -37z"/>
<path d="M1652 1968 c-7 -7 -12 -33 -12 -59 0 -92 81 -159 110 -89 15 35 9
122 -10 145 -15 18 -71 20 -88 3z m78 -27 c21 -40 7 -131 -20 -131 -30 0 -66
121 -43 143 13 14 53 6 63 -12z"/>
<path d="M1931 1938 c1 -29 4 -77 7 -107 l7 -54 31 29 c21 20 35 46 44 83 13
54 13 55 -14 78 -15 13 -38 23 -52 23 -23 0 -24 -3 -23 -52z m63 13 c19 -21
15 -54 -12 -106 l-16 -30 -7 30 c-4 17 -7 48 -8 71 -1 57 13 69 43 35z"/>
<path d="M2448 1983 c-14 -3 -18 -15 -18 -49 0 -44 0 -44 36 -44 69 0 89 27
58 75 -16 24 -36 29 -76 18z m62 -33 c15 -27 5 -40 -31 -40 -24 0 -29 4 -29
24 0 38 42 49 60 16z"/>
<path d="M2746 1935 c-9 -23 -8 -25 9 -25 17 0 19 9 6 28 -7 11 -10 10 -15 -3z"/>
<path d="M3795 2055 c-5 -2 -22 -6 -38 -9 -59 -14 -67 -33 -67 -174 0 -140 4
-152 55 -152 37 0 55 16 55 47 0 32 13 29 44 -12 23 -29 33 -35 66 -35 29 0
42 5 50 19 15 28 13 36 -16 71 l-27 31 23 25 c18 18 24 36 24 75 1 46 -2 54
-36 85 -31 28 -45 34 -80 33 -24 0 -47 -2 -53 -4z m122 -50 c32 -32 35 -40 30
-73 -4 -24 -17 -46 -36 -62 l-30 -26 36 -36 c41 -41 40 -68 -3 -68 -19 0 -38
13 -66 45 -50 57 -66 58 -70 3 -3 -40 -5 -43 -33 -43 l-30 0 -3 126 c-3 138
-2 140 58 157 72 21 109 15 147 -23z"/>
<path d="M3793 1983 c-8 -3 -13 -23 -13 -49 0 -44 0 -44 36 -44 41 0 74 15 74
34 0 7 -9 25 -21 40 -19 24 -47 31 -76 19z m63 -34 c16 -17 16 -22 4 -29 -8
-6 -25 -10 -37 -10 -17 0 -23 6 -23 23 0 42 26 50 56 16z"/>
</g>
</svg>
